<?xml version="1.0" encoding="UTF-8" standalone="no"?>
<!-- Created with Inkscape (http://www.inkscape.org/) -->

<svg
   width="1mm"
   height="1mm"
   viewBox="0 0 1 1"
   version="1.1"
   id="svg1"
   xml:space="preserve"
   inkscape:version="1.4 (e7c3feb1, 2024-10-09)"
   sodipodi:docname="helpful2.svg"
   xmlns:inkscape="http://www.inkscape.org/namespaces/inkscape"
   xmlns:sodipodi="http://sodipodi.sourceforge.net/DTD/sodipodi-0.dtd"
   xmlns="http://www.w3.org/2000/svg"
   xmlns:svg="http://www.w3.org/2000/svg"><sodipodi:namedview
     id="namedview1"
     pagecolor="#ffffff"
     bordercolor="#999999"
     borderopacity="1"
     inkscape:showpageshadow="2"
     inkscape:pageopacity="0"
     inkscape:pagecheckerboard="0"
     inkscape:deskcolor="#d1d1d1"
     inkscape:document-units="mm"
     inkscape:zoom="90.509668"
     inkscape:cx="2.0550291"
     inkscape:cy="1.4860291"
     inkscape:window-width="1472"
     inkscape:window-height="830"
     inkscape:window-x="0"
     inkscape:window-y="37"
     inkscape:window-maximized="0"
     inkscape:current-layer="layer1" /><defs
     id="defs1" /><g
     inkscape:groupmode="layer"
     id="layer5"
     inkscape:label="Base Layer"
     transform="translate(0.04396764,0.0030437)"
     style="display:none"><circle
       style="opacity:0.67;fill:#949494;fill-opacity:1;stroke:none;stroke-width:0.1"
       id="path2027"
       cx="168.90904"
       cy="176.01659"
       r="0.5"
       transform="translate(-168.45301,-175.51963)" /></g><g
     inkscape:label="Layer 1"
     inkscape:groupmode="layer"
     id="layer1"
     transform="matrix(1.2031753,0,0,1.2031753,-202.72718,-211.27881)"><g
       id="g19"
       transform="matrix(0.84924529,0,0,0.84924529,4.409667,41.44196)"><path
         style="display:inline;fill:#c2c2c2;stroke-width:0.004032"
         d="m 193.71715,158.44734 c -0.0659,-0.0204 0.001,-0.11471 0.0411,-0.0605 0.0215,0.0292 -0.009,0.0719 -0.0411,0.0605 z"
         id="path_middle_head"
         inkscape:label="#path_middle_head" /><path
         style="display:inline;fill:#c2c2c2;stroke-width:0.004032"
         d="m 193.57718,158.5736 c -0.0607,-0.0221 0.0215,-0.0943 0.0367,-0.0339 0.005,0.0211 -0.0172,0.0407 -0.0367,0.0339 z"
         id="path_left_head"
         inkscape:label="#path_left_head" /><path
         style="display:inline;fill:#c2c2c2;stroke-width:0.004032"
         d="m 193.84361,158.59159 c -0.0557,-0.0257 0.0315,-0.0892 0.0357,-0.0265 0.004,0.0193 -0.0222,0.034 -0.0357,0.0265 z"
         id="path_right_head"
         inkscape:label="#path_right_head" /><path
         style="display:inline;opacity:0.67;fill:#ffab41;stroke:#ffab41;stroke-width:0.0004032"
         d="m 193.46712,158.52187 c 0.0152,-0.0359 0.0404,0.0381 0.0623,0.0445 0.0278,0.0355 0.0848,0.0324 0.10174,-0.0123 0.008,-0.0484 -0.021,-0.10053 -0.0316,-0.14918 -0.006,-0.0283 -0.0291,-0.057 -0.008,-0.0838 0.0204,0.0346 0.0434,0.0869 0.0784,0.11888 0.0354,0.0452 0.10389,0.0307 0.12649,-0.0191 0.0266,-0.0229 0.0175,-0.0845 0.0537,-0.0875 0.0215,-0.005 -5.7e-4,0.0263 4e-5,0.0386 -0.0159,0.0587 -0.0318,0.11732 -0.0476,0.17598 0.01,0.0534 0.0706,0.0856 0.1081,0.036 0.0161,-0.0145 0.0652,-0.0762 0.0509,-0.026 -0.0731,0.0922 -0.11119,0.20688 -0.12385,0.32284 -0.0102,0.0239 0.008,0.0782 -0.0311,0.0711 -0.017,9.4e-4 -0.034,0.002 -0.0511,0.003 0.044,-0.11615 0.0615,-0.2447 0.0374,-0.36733 -0.0343,0.11855 -0.0392,0.24282 -0.0468,0.36526 -0.0212,-3.3e-4 -0.0423,0.005 -0.0635,0.005 -3e-4,-0.11331 -0.002,-0.23389 -0.0323,-0.34391 -0.008,0.11146 -0.018,0.23472 0.0136,0.34365 l -0.12332,-0.004 c 0.0302,-0.0814 0.0117,-0.18714 -0.0104,-0.26755 -0.0167,-0.0562 -0.0388,-0.11098 -0.0628,-0.16426 z"
         id="path1979"
         sodipodi:nodetypes="cccccccccccccccccccccccc" /><path
         style="display:inline;fill:#949494;stroke-width:0.004032"
         d="m 193.75704,158.03335 c -0.0313,-0.0333 0.0542,-0.0967 0.0338,-0.0287 -0.003,0.0137 -0.0198,0.0329 -0.0338,0.0287 z"
         id="path2024" /><path
         style="display:inline;fill:#949494;stroke-width:0.004032"
         d="m 193.6353,158.03316 c -0.0424,-0.01 -0.0302,-0.098 0.007,-0.0424 0.008,0.0117 0.0108,0.0471 -0.007,0.0424 z"
         id="path2023" /><path
         style="display:inline;fill:#949494;stroke-width:0.004032"
         d="m 193.69602,158.03556 c -0.0276,-0.0208 0.0122,-0.0859 0.02,-0.0286 0.002,0.0112 -0.002,0.0375 -0.02,0.0286 z"
         id="path2022" /><path
         style="display:inline;fill:#949494;stroke-width:0.004032"
         d="m 193.84054,158.04156 c -0.0262,-0.0338 0.0539,-0.0665 0.0226,-0.0139 -0.004,0.008 -0.0163,0.0157 -0.0226,0.0139 z"
         id="path2021" /><path
         style="display:inline;fill:#949494;stroke-width:0.004032"
         d="m 193.5528,158.04049 c -0.0446,-0.0234 -0.002,-0.0691 0.0127,-0.014 0.002,0.008 -0.006,0.0203 -0.0127,0.014 z"
         id="path2020" /><path
         style="display:inline;fill:#949494;stroke-width:0.004032"
         d="m 193.45596,158.08357 c -0.0273,-0.01 -0.0255,-0.0549 0.007,-0.0275 0.0146,0.009 0.0201,0.0407 -0.007,0.0275 z"
         id="path2019" /><path
         style="display:inline;fill:#949494;stroke-width:0.004032"
         d="m 193.92977,158.08597 c -0.0365,-0.0389 0.0989,-0.0699 0.0437,-0.0142 -0.0111,0.0115 -0.031,0.0169 -0.0437,0.0142 z"
         id="path2018" /><path
         style="display:inline;fill:#949494;stroke-width:0.004032"
         d="m 193.84097,158.11009 c -0.0277,-0.0437 0.065,-0.0763 0.0339,-0.0156 -0.006,0.0117 -0.0246,0.0215 -0.0339,0.0156 z"
         id="path2017" /><path
         style="display:inline;fill:#949494;stroke-width:0.004032"
         d="m 193.546,158.11081 c -0.0394,-0.009 -0.0268,-0.0834 0.009,-0.0388 0.0146,0.0102 0.0121,0.0493 -0.009,0.0388 z"
         id="path2016" /><path
         style="display:inline;fill:#949494;stroke-width:0.004032"
         d="m 193.73636,158.13877 c -0.0361,-0.0367 0.0555,-0.11479 0.0426,-0.0414 -0.005,0.0187 -0.0228,0.0472 -0.0426,0.0414 z"
         id="path2015" /><path
         style="display:inline;fill:#949494;stroke-width:0.004032"
         d="m 193.65668,158.13858 c -0.042,-0.003 -0.0502,-0.11047 -0.002,-0.0617 0.0167,0.009 0.031,0.0642 0.002,0.0617 z"
         id="path2014" /><path
         style="display:inline;fill:#949494;stroke-width:0.004032"
         d="m 193.97732,158.14818 c -0.008,-0.0575 0.0859,-0.0456 0.0238,-0.002 -0.005,0.003 -0.0207,0.009 -0.0238,0.002 z"
         id="path2013" /><path
         style="display:inline;fill:#949494;stroke-width:0.004032"
         d="m 193.41137,158.1493 c -0.0341,-0.002 -0.0436,-0.0663 -0.001,-0.0365 0.0141,0.006 0.0308,0.0434 0.001,0.0365 z"
         id="path2012" /><path
         style="display:inline;fill:#949494;stroke-width:0.004032"
         d="m 193.86782,158.18266 c -0.011,-0.0324 0.0225,-0.0721 0.0543,-0.067 0.008,0.0295 -0.0219,0.0763 -0.0543,0.067 z"
         id="path2011" /><path
         style="display:inline;fill:#949494;stroke-width:0.004032"
         d="m 193.51805,158.18244 c -0.0564,-0.0119 -0.0455,-0.11082 0.008,-0.045 0.0102,0.0129 0.0235,0.0548 -0.008,0.045 z"
         id="path2010" /><path
         style="display:inline;fill:#949494;stroke-width:0.004032"
         d="m 194.02553,158.20332 c -0.0364,-0.0343 0.0754,-0.0894 0.0803,-0.0453 -0.0135,0.0301 -0.0472,0.0544 -0.0803,0.0453 z"
         id="path2009" /><path
         style="display:inline;fill:#949494;stroke-width:0.004032"
         d="m 193.35318,158.20379 c -0.0562,-0.0127 -0.0549,-0.0939 0.007,-0.0526 0.029,0.0172 0.0378,0.0639 -0.007,0.0526 z"
         id="path2008" /><path
         style="display:inline;fill:#949494;stroke-width:0.004032"
         d="m 193.7682,158.22995 c -0.0328,-0.0391 0.0651,-0.11435 0.0471,-0.0413 -0.004,0.0218 -0.0286,0.0445 -0.0471,0.0413 z"
         id="path2007" /><path
         style="display:inline;fill:#949494;stroke-width:0.004032"
         d="m 193.6194,158.22896 c -0.0277,-0.003 -0.0522,-0.064 -0.0264,-0.0737 0.0301,-4.9e-4 0.0719,0.0767 0.0264,0.0737 z"
         id="path2006" /><path
         style="display:inline;fill:#949494;stroke-width:0.004032"
         d="m 193.9149,158.24288 c -0.0279,-0.0453 0.097,-0.0936 0.055,-0.027 -0.0102,0.0203 -0.0353,0.0303 -0.055,0.027 z"
         id="path2005" /><path
         style="display:inline;fill:#949494;stroke-width:0.004032"
         d="m 193.46591,158.24321 c -0.0446,-2e-5 -0.0604,-0.0919 -0.003,-0.0508 0.0213,0.0115 0.041,0.062 0.003,0.0508 z"
         id="path2004" /><path
         style="display:inline;fill:#949494;stroke-width:0.004032"
         d="m 194.06062,158.27129 c -0.0386,-0.0398 0.0989,-0.0467 0.0352,-0.005 -0.0102,0.005 -0.0247,0.0142 -0.0352,0.005 z"
         id="path2003" /><path
         style="display:inline;fill:#949494;stroke-width:0.004032"
         d="m 193.31814,158.27119 c -0.0323,-0.006 -0.0416,-0.0478 8.2e-4,-0.0354 0.0355,0.006 0.0444,0.0448 -8.2e-4,0.0354 z"
         id="path2002" /><path
         style="display:inline;fill:#949494;stroke-width:0.004032"
         d="m 193.79874,158.31967 c -0.0131,-0.0433 0.0493,-0.0971 0.0834,-0.0743 7.7e-4,0.0429 -0.0393,0.0842 -0.0834,0.0743 z"
         id="path2000" /><path
         style="display:inline;fill:#949494;stroke-width:0.004032"
         d="m 193.57776,158.31984 c -0.0445,0.001 -0.0858,-0.10841 -0.0149,-0.0744 0.0293,0.005 0.07,0.088 0.0149,0.0744 z"
         id="path1999" /><path
         style="display:inline;fill:#949494;stroke-width:0.004032"
         d="m 193.91863,158.3442 c -0.0488,-0.0212 0.0296,-0.0939 0.0708,-0.0806 0.0477,0.01 -0.0227,0.0871 -0.0585,0.0807 -0.004,0.003 -0.009,-0.003 -0.0123,-1.2e-4 z"
         id="path1998" /><path
         style="display:inline;fill:#949494;stroke-width:0.004032"
         d="m 193.46418,158.343 c -0.0343,-0.002 -0.0812,-0.0838 -0.017,-0.063 0.0387,0.002 0.0865,0.0824 0.017,0.063 z"
         id="path1997" /><path
         style="display:inline;fill:#949494;stroke-width:0.004032"
         d="m 194.00825,158.3514 c -0.0399,-0.0176 0.0285,-0.0573 0.0528,-0.0362 0.003,0.0224 -0.0326,0.0422 -0.0528,0.0362 z"
         id="path1996" /><path
         style="display:inline;fill:#949494;stroke-width:0.004032"
         d="m 193.36016,158.35132 c -0.0377,-10e-4 -0.0818,-0.0661 -0.0189,-0.0591 0.039,-0.0129 0.10215,0.0618 0.0334,0.0613 -7e-5,-0.005 -0.0158,0.005 -0.0145,-0.002 z"
         id="path1995" /><path
         style="display:inline;fill:#949494;stroke-width:0.004032"
         d="m 193.27376,158.35732 c -0.0308,-0.004 -0.0534,-0.0548 -0.006,-0.0427 0.0346,0.002 0.0573,0.0559 0.006,0.0427 z"
         id="path1994" /><path
         style="display:inline;fill:#949494;stroke-width:0.004032"
         d="m 194.11974,158.36212 c -0.0716,-0.0138 0.0427,-0.0698 0.0463,-0.0216 -0.0109,0.0133 -0.0311,0.0232 -0.0463,0.0216 z"
         id="path1993" /><path
         style="display:inline;fill:#949494;stroke-width:0.004032"
         d="m 193.3348,158.42104 c -0.0487,-0.0108 -0.0364,-0.0577 0.008,-0.0326 0.0314,0.0134 0.0288,0.0452 -0.008,0.0326 z"
         id="path1992" /><path
         style="display:inline;fill:#949494;stroke-width:0.004032"
         d="m 194.05673,158.42344 c -0.0627,-0.011 0.0179,-0.059 0.045,-0.0368 0.0403,0.016 -0.0362,0.0388 -0.045,0.0368 z"
         id="path1991" /><path
         style="display:inline;fill:#949494;stroke-width:0.004032"
         d="m 193.92292,158.44252 c -0.0438,-0.0275 0.0467,-0.0728 0.076,-0.0454 -0.005,0.0311 -0.0471,0.0524 -0.076,0.0454 z"
         id="path1990" /><path
         style="display:inline;fill:#949494;stroke-width:0.004032"
         d="m 193.46084,158.45212 c -0.0285,3.2e-4 -0.081,-0.0697 -0.0225,-0.0574 0.0385,-0.007 0.0967,0.0698 0.0225,0.0574 z"
         id="path1989" /><path
         style="display:inline;fill:#949494;stroke-width:0.004032"
         d="m 193.27217,158.47228 c -0.0495,-2.6e-4 -0.0492,-0.0517 9.9e-4,-0.0406 0.0268,6e-5 0.063,0.0398 -9.9e-4,0.0406 z"
         id="path1988" /><path
         style="display:inline;fill:#949494;stroke-width:0.004032"
         d="m 194.11708,158.47828 c -0.088,-0.0433 0.10173,-0.0462 0.0306,-0.003 -0.01,0.004 -0.0205,0.002 -0.0306,0.003 z"
         id="path1987" /><path
         style="display:inline;fill:#949494;stroke-width:0.004032"
         d="m 193.97678,158.51944 c -0.0635,-0.0213 0.0737,-0.081 0.0598,-0.029 -0.0117,0.0192 -0.0372,0.0333 -0.0598,0.029 z"
         id="path1986" /><path
         style="display:inline;fill:#949494;stroke-width:0.004032"
         d="m 193.40819,158.51951 c -0.0473,-0.004 -0.058,-0.0638 -6.8e-4,-0.0451 0.0356,0.008 0.0512,0.0606 6.8e-4,0.0451 z"
         id="path1985" /><path
         style="display:inline;fill:#949494;stroke-width:0.004032"
         d="m 193.27537,158.55035 c -0.0412,-1.7e-4 -0.0484,-0.0366 -0.007,-0.0485 0.0353,-0.0304 0.11301,0.0222 0.0455,0.044 -0.0113,0.006 -0.0315,0.005 -0.0383,0.004 z"
         id="path1984" /><path
         style="display:inline;fill:#949494;stroke-width:0.004032"
         d="m 194.09786,158.55515 c -0.0332,6.4e-4 -0.0638,-0.0433 -0.015,-0.0463 0.0542,-0.0144 0.11243,0.0583 0.0261,0.0472 0.002,0.002 -0.0173,-0.004 -0.0111,-9.2e-4 z"
         id="path1983" /><path
         style="display:inline;fill:#949494;stroke-width:0.004032"
         d="m 194.02718,158.61095 c -0.0391,-7e-4 -0.0551,-0.0592 -0.004,-0.0472 0.0328,9.8e-4 0.0708,0.0579 0.0136,0.0476 l -0.009,-10e-4 z"
         id="path1982" /><path
         style="display:inline;fill:#949494;stroke-width:0.004032"
         d="m 193.3576,158.61815 c -0.0437,-0.0297 0.0878,-0.0892 0.061,-0.0269 -0.0114,0.0211 -0.0393,0.0276 -0.061,0.0269 z"
         id="path1981" /><ellipse
         style="opacity:0.67;fill:#949494;fill-opacity:1;stroke:none;stroke-width:0.1"
         id="path2026"
         cx="193.70383"
         cy="158.24097"
         rx="0.032039389"
         ry="0.066662595" /></g></g></svg>
