<?xml version="1.0" encoding="UTF-8" standalone="no"?>
<!-- Created with Inkscape (http://www.inkscape.org/) -->

<svg
   width="1mm"
   height="1mm"
   viewBox="0 0 0.99999998 0.99999998"
   version="1.1"
   id="svg1"
   xml:space="preserve"
   inkscape:version="1.4 (e7c3feb1, 2024-10-09)"
   sodipodi:docname="sneaky.svg"
   xmlns:inkscape="http://www.inkscape.org/namespaces/inkscape"
   xmlns:sodipodi="http://sodipodi.sourceforge.net/DTD/sodipodi-0.dtd"
   xmlns="http://www.w3.org/2000/svg"
   xmlns:svg="http://www.w3.org/2000/svg"><sodipodi:namedview
     id="namedview1"
     pagecolor="#ffffff"
     bordercolor="#999999"
     borderopacity="1"
     inkscape:showpageshadow="2"
     inkscape:pageopacity="0"
     inkscape:pagecheckerboard="0"
     inkscape:deskcolor="#d1d1d1"
     inkscape:document-units="mm"
     inkscape:zoom="80.71882"
     inkscape:cx="1.9512178"
     inkscape:cy="1.7963593"
     inkscape:window-width="1272"
     inkscape:window-height="749"
     inkscape:window-x="0"
     inkscape:window-y="37"
     inkscape:window-maximized="0"
     inkscape:current-layer="layer2"
     showgrid="true"><inkscape:grid
       id="grid9"
       units="mm"
       originx="-105.14325"
       originy="-123.6394"
       spacingx="0.26458333"
       spacingy="0.26458334"
       empcolor="#0099e5"
       empopacity="0.30196078"
       color="#0099e5"
       opacity="0.14901961"
       empspacing="5"
       enabled="true"
       visible="true" /></sodipodi:namedview><defs
     id="defs1" /><g
     inkscape:groupmode="layer"
     id="layer2"
     inkscape:label="Base Layer"
     transform="translate(-0.04999951,-0.04999667)"
     style="display:none"><circle
       style="fill:#99999f;stroke:none;stroke-width:0.1"
       id="path12"
       cx="105.64325"
       cy="124.1394"
       r="0.5"
       transform="translate(-105.09325,-123.5894)" /></g><g
     inkscape:label="Layer 1"
     inkscape:groupmode="layer"
     id="layer1"
     transform="translate(-105.14325,-123.6394)"><g
       id="g9"
       transform="matrix(0.02649,0,0,0.02649,102.84609,120.85332)"><path
         style="fill:#000000"
         d="m 116.0539,134.99486 c -0.82506,0.0273 -1.38917,0.5269 -2.63292,1.78025 l -1.79265,1.8061 2.85771,-0.11473 c 3.07461,-0.12373 6.10258,0.40434 8.54676,1.49139 0.65484,0.29124 1.2829,0.53798 1.39578,0.54828 0.44315,0.0404 -0.6238,-1.52137 -1.74615,-2.55591 -1.36788,-1.26087 -2.63348,-1.95499 -4.65863,-2.5554 -0.88581,-0.26263 -1.47487,-0.41636 -1.9699,-0.39998 z"
         id="path9" /><path
         style="fill:#000000"
         d="m 96.741382,134.96851 c -1.31591,0 -3.82939,0.7206 -5.71438,1.63814 -1.65352,0.80486 -4.242118,3.04414 -4.242118,3.66954 0,0.19043 0.1744,0.23061 0.46302,0.10646 1.16282,-0.50017 4.832601,-1.48247 6.528801,-1.74718 1.02933,-0.16094 3.215195,-0.23335 4.857585,-0.16175 1.64239,0.072 2.95212,0.1048 2.91042,0.0739 -0.0417,-0.0309 -0.94838,-0.84867 -2.014868,-1.81746 -1.5455,-1.40392 -2.11129,-1.76165 -2.78846,-1.76165 z"
         id="path8" /><path
         style="fill:#000000"
         d="m 96.804944,127.84233 c -0.190974,0.009 -0.245835,0.47537 -0.14056,1.36425 0.38493,3.2501 1.996441,5.77763 5.260146,8.25015 l 1.92598,1.45934 0.14469,-2.03967 c 0.15463,-2.17524 0.33612,-2.65053 1.76579,-4.61987 l 0.9126,-1.25677 h -1.09192 c -2.84445,0 -7.574694,-1.52442 -8.291484,-2.67219 -0.206978,-0.33144 -0.370658,-0.4906 -0.485242,-0.48524 z"
         id="path7" /><path
         style="fill:#000000"
         d="m 116.55051,123.75524 -0.71934,1.08985 c -1.01262,1.53535 -3.79223,2.87926 -6.82129,3.29748 -1.23693,0.17078 -2.2829,0.33213 -2.3244,0.35863 -0.0415,0.0264 0.34475,0.75442 0.85886,1.61747 1.33427,2.23983 2.10513,5.48017 1.90686,8.01812 l -0.15555,1.99109 1.42989,-1.54823 c 3.99786,-4.32794 6.15556,-9.2144 5.90972,-13.38471 z"
         id="path6" /><path
         style="fill:#000000"
         d="m 111.31724,120.24279 c -0.35662,-1.7e-4 -0.74411,0.0161 -1.16066,0.0496 -1.14019,0.0916 -2.25133,0.23698 -2.46961,0.32298 -0.60366,0.23797 -1.68756,0.27028 -1.98438,0.0589 -0.51239,-0.36488 -4.73978,-0.54853 -5.61361,-0.24391 -1.858629,0.64792 -1.220997,2.44339 1.17926,3.32072 1.83957,0.6724 3.78914,-0.0496 4.56664,-1.69137 0.51403,-1.08542 0.87911,-1.06446 1.5596,0.0889 0.56003,0.94917 2.28058,1.9606 3.3352,1.9606 0.88464,0 2.70982,-0.96175 3.17603,-1.67328 0.90637,-1.3833 -0.0922,-2.19199 -2.58847,-2.19315 z"
         id="path5" /><path
         style="fill:#000000"
         d="m 99.684871,112.95796 -1.221114,0.18294 c -3.04689,0.45691 -3.820846,1.97171 -1.955436,3.82664 1.1263,1.11999 3.258682,2.01594 6.019269,2.52853 6.24115,1.15887 14.17143,-0.70251 15.16755,-3.55999 0.5382,-1.54387 -0.65313,-2.58259 -3.2737,-2.85306 -1.33515,-0.13779 -1.44281,-0.10729 -1.44281,0.40514 0,0.96659 -0.57511,1.86287 -1.46606,2.28565 -0.67055,0.31823 -1.83455,0.40928 -5.2157,0.40928 -4.08558,0 -4.40701,-0.0364 -5.24257,-0.59945 -0.61874,-0.41698 -0.96368,-0.90883 -1.130167,-1.61282 z"
         id="path4" /><path
         style="fill:#000000"
         d="m 108.78457,107.71642 c -0.4492,0 -1.26932,0.23613 -1.82262,0.52452 -0.75573,0.39392 -1.4497,0.5115 -2.78898,0.4718 -1.58134,-0.0469 -1.85638,0.0208 -2.43241,0.59997 -0.38231,0.38441 -0.82369,1.33686 -1.07332,2.31562 -0.54314,2.12958 -0.21773,3.36534 1.02888,3.90777 1.18037,0.51371 8.06087,0.51984 9.28522,0.008 1.53179,-0.64002 1.81054,-1.8158 1.04335,-4.39922 -0.54397,-1.83174 -2.05302,-3.42873 -3.24012,-3.42873 z"
         id="path3" /></g></g></svg>
