<?xml version="1.0" encoding="UTF-8" standalone="no"?>
<!-- Created with Inkscape (http://www.inkscape.org/) -->

<svg
   width="0.99851972mm"
   height="0.75801086mm"
   viewBox="0 0 0.99851972 0.75801086"
   version="1.1"
   id="svg1"
   xml:space="preserve"
   inkscape:version="1.4 (e7c3feb1, 2024-10-09)"
   sodipodi:docname="tough.svg"
   xmlns:inkscape="http://www.inkscape.org/namespaces/inkscape"
   xmlns:sodipodi="http://sodipodi.sourceforge.net/DTD/sodipodi-0.dtd"
   xmlns="http://www.w3.org/2000/svg"
   xmlns:svg="http://www.w3.org/2000/svg"><sodipodi:namedview
     id="namedview1"
     pagecolor="#ffffff"
     bordercolor="#999999"
     borderopacity="1"
     inkscape:showpageshadow="2"
     inkscape:pageopacity="0"
     inkscape:pagecheckerboard="0"
     inkscape:deskcolor="#d1d1d1"
     inkscape:document-units="mm"
     inkscape:zoom="207.79915"
     inkscape:cx="1.886437"
     inkscape:cy="1.4292648"
     inkscape:window-width="1392"
     inkscape:window-height="891"
     inkscape:window-x="0"
     inkscape:window-y="37"
     inkscape:window-maximized="0"
     inkscape:current-layer="layer1" /><defs
     id="defs1" /><g
     inkscape:label="Layer 1"
     inkscape:groupmode="layer"
     id="layer1"
     transform="translate(-115.3314,-182.7892)"><g
       id="g2"
       transform="matrix(0.0037629,0,0,0.0037629,115.37484,182.44071)"><path
         style="fill:#c87f7f;fill-opacity:1"
         d="m 118.38021,293.64104 c -1.52625,-0.58321 -4.51849,-0.93886 -8.51576,-1.01214 -1.91877,-0.0352 -3.70471,-0.15795 -3.96875,-0.27282 -0.26404,-0.11487 -1.81281,-0.28178 -3.4417,-0.37092 -2.41532,-0.13218 -3.098597,-0.26324 -3.704167,-0.71049 -0.629645,-0.46504 -1.300852,-0.57733 -4.414686,-0.73852 -2.460489,-0.12738 -3.862986,-0.31515 -4.250521,-0.56907 -0.318107,-0.20843 -1.165953,-0.4513 -1.884104,-0.53971 -0.718151,-0.0884 -1.612872,-0.37538 -1.988268,-0.63771 -0.375397,-0.26233 -1.679857,-0.66507 -2.898801,-0.89497 -3.415664,-0.64422 -3.35272,-0.51117 -2.792208,-5.90231 0.256739,-2.46938 0.690451,-5.1254 0.97552,-5.97399 0.282294,-0.84034 0.685013,-2.34437 0.89493,-3.34228 0.209918,-0.99791 0.806633,-3.09803 1.326034,-4.66694 1.489281,-4.49853 1.755347,-10.58541 0.612432,-14.01081 -0.45924,-1.37637 -0.798243,-3.69997 -1.399309,-9.59115 -0.136616,-1.339 -0.118173,-1.38906 0.511739,-1.38906 0.594094,0 1.73241,0.88573 1.73241,1.34799 0,0.17516 1.259139,1.164 3.735129,2.9333 1.470206,1.05059 1.985223,-0.0266 0.85332,-1.78481 -0.193413,-0.30043 -0.604904,-1.49106 -0.914425,-2.64584 -0.30952,-1.15478 -0.737297,-2.75444 -0.950614,-3.5548 -0.45566,-1.70964 -1.379965,-3.69764 -2.829362,-6.08542 -0.574158,-0.94589 -1.509163,-2.71029 -2.07779,-3.92091 -2.620991,-5.58012 -3.837744,-5.98404 -3.495769,-1.16046 0.251352,3.54535 -0.20342,4.72652 -1.199656,3.11586 -0.218281,-0.35291 -1.11125,-1.62701 -1.984375,-2.83133 -0.873125,-1.20432 -1.850352,-2.61201 -2.171617,-3.12819 C 73.516629,224.30221 68.00075,213.26049 66.798053,210.60669 62.20978,200.48252 59.627069,197.85143 53.425,196.98317 c -1.535981,-0.21503 -7.221395,0.58692 -9.921875,1.39952 -4.616859,1.38926 -8.401589,2.09159 -10.186458,1.89029 -1.76875,-0.19948 -5.947289,-1.36666 -8.995834,-2.51278 -3.790417,-1.42503 -6.817176,-2.11373 -10.980964,-2.49858 -8.1627054,-0.75446 -11.5185799,-2.23514 -18.9169531,-8.34654 -1.5279687,-1.26217 -3.1508959,-2.48605 -3.6065048,-2.71972 -2.0786731,-1.06613 -2.8338201,-3.15732 -2.0711541,-5.73554 0.236757,-0.80037 0.608984,-2.34818 0.827173,-3.43958 1.1975894,-5.9905 2.711461,-10.76239 5.4979726,-17.33021 2.1590421,-5.08888 6.9017328,-12.82347 9.8061176,-15.99227 0.8745343,-0.95415 1.8813213,-2.15153 2.2373043,-2.66086 0.3559831,-0.50932 1.4311425,-1.87854 2.389243,-3.0427 1.6623735,-2.01992 2.8394795,-3.53934 3.7052655,-4.7828 0.218281,-0.3135 0.754062,-1.08176 1.190625,-1.70725 1.043459,-1.49502 1.865631,-2.80848 2.518546,-4.02351 2.944561,-5.47965 6.849074,-8.13704 15.076246,-10.26083 3.772403,-0.97382 12.547341,-1.2208 14.776591,-0.4159 1.706879,0.61629 3.444747,3.1347 4.124335,5.97674 0.191383,0.80037 0.554861,2.15726 0.807729,3.01532 0.829556,2.81494 0.0016,5.14806 -1.981442,5.58361 -0.395589,0.0869 -1.357106,0.56892 -2.136706,1.07119 -1.478914,0.95281 -2.138048,1.08561 -3.263867,0.65757 -0.465345,-0.17692 -1.183532,-0.14181 -2.332329,0.11402 -5.072505,1.12961 -4.444109,1.12935 -6.7413,0.003 -2.935139,-1.43938 -4.092875,-1.25588 -6.223592,0.98645 -2.250269,2.36815 -4.973736,8.06337 -6.553498,13.70445 -0.264892,0.94589 -0.659097,2.19604 -0.876013,2.77812 -0.216916,0.58209 -0.579635,2.24896 -0.806043,3.70417 -1.252726,8.05175 -2.107554,11.80481 -3.362891,14.76453 -0.942169,2.22137 -0.350268,2.79487 1.618788,1.56846 2.63214,-1.6394 3.425238,-1.75769 3.425238,-0.51091 0,1.57081 0.458602,1.61977 2.092901,0.22342 6.609939,-5.64756 18.286277,-6.86299 25.529377,-2.65744 2.377607,1.38051 4.494553,2.37203 4.807776,2.25183 0.577655,-0.22166 0.452086,-0.85905 -0.283179,-1.43741 -1.386809,-1.09086 -0.925036,-1.98641 1.326674,-2.57291 0.805925,-0.20991 1.740486,-0.56196 2.076802,-0.78232 1.070451,-0.70139 5.161352,-1.95364 7.398994,-2.26488 5.683429,-0.79053 10.366471,0.578 14.777049,4.31831 1.67646,1.42169 1.862728,1.43623 4.318399,0.33722 0.727604,-0.32563 1.97776,-0.86116 2.778125,-1.19005 0.800364,-0.3289 2.110052,-0.87722 2.910416,-1.2185 0.800365,-0.34128 2.348177,-0.98857 3.439584,-1.43842 1.091406,-0.44986 2.473666,-1.05021 3.071688,-1.33411 0.598023,-0.28391 1.176044,-0.51619 1.284492,-0.51619 0.108449,0 0.754935,-0.28015 1.436637,-0.62255 0.681705,-0.3424 1.703605,-0.77573 2.270905,-0.96295 0.56729,-0.18722 1.57464,-0.65923 2.23855,-1.0489 l 1.2071,-0.7085 0.13229,-3.65828 c 0.14298,-3.95361 0.42965,-4.69035 1.52136,-3.9099 1.25469,0.89696 2.18456,1.22563 2.51619,0.88937 0.2616,-0.26526 0.22085,-0.40722 -0.20109,-0.7006 -4.03155,-2.80318 -6.88817,-6.90498 -7.65053,-10.98532 -0.35969,-1.92513 -1.05679,-3.50927 -2.032328,-4.61841 -1.02119,-1.16105 -3.189772,-5.97355 -3.337723,-7.40705 -0.15965,-1.54686 0.804909,-3.044 1.961151,-3.044 1.411686,0 1.700777,-0.65109 1.511204,-3.40357 -0.361886,-5.25431 1.026786,-13.54537 2.850016,-17.01607 1.54205,-2.935445 6.31943,-7.341369 8.84748,-8.159572 0.56416,-0.182588 1.44245,-0.540781 1.95177,-0.795986 3.41259,-1.709932 11.5106,-1.525543 16.2006,0.368881 9.22079,3.724538 13.08802,11.357097 12.87219,25.405177 -0.0474,3.08469 0.15783,3.60114 1.43101,3.60114 0.8131,0 2.03996,1.50956 2.03996,2.51003 0,1.66173 -1.3143,4.60483 -3.84161,8.60247 -0.85029,1.34498 -1.24718,2.40006 -1.82105,4.84109 l -0.7338,3.12128 -2.11901,2.56726 c -1.16546,1.41199 -2.31586,2.67616 -2.55646,2.80927 -0.2406,0.13311 -0.68325,0.4903 -0.98367,0.79375 -0.30042,0.30345 -0.77667,0.69439 -1.05833,0.86876 -0.44313,0.27433 -0.45866,0.35398 -0.11524,0.59126 0.57409,0.39668 0.8884,0.34769 1.51506,-0.23613 1.8396,-1.71386 2.74002,-0.87671 2.53078,2.35294 -0.25197,3.88918 -0.0416,4.61022 1.62331,5.56276 0.7737,0.44267 1.58285,0.80485 1.79813,0.80485 0.21527,0 0.95122,0.29765 1.63544,0.66145 0.68421,0.36381 1.38485,0.66146 1.55696,0.66146 0.17211,0 0.90995,0.2909 1.63965,0.64643 1.35904,0.66219 2.57246,1.18042 8.33817,3.56112 1.81901,0.75107 3.91927,1.65173 4.66723,2.00145 1.65915,0.77575 2.19015,0.67265 3.93173,-0.7634 1.56763,-1.29261 3.3776,-2.53518 3.69286,-2.53518 0.12365,0 0.84321,-0.29254 1.59901,-0.65009 3.98616,-1.88576 12.76211,-1.16695 17.06941,1.39809 0.51152,0.30461 1.55332,0.68751 2.31511,0.85089 1.56534,0.3357 1.9225,1.27231 0.85393,2.23935 -0.44278,0.40071 -1.32095,1.83371 -1.32095,2.15553 0,0.28812 0.76211,0.0266 0.88943,-0.30523 0.0838,-0.21828 0.34723,-0.39687 0.58549,-0.39687 0.23825,0 1.34331,-0.51109 2.4557,-1.13574 6.2827,-3.52804 14.38127,-4.43602 20.37292,-2.28411 0.82134,0.29498 1.87029,0.66625 2.331,0.82503 0.46072,0.15879 1.59181,0.87357 2.51354,1.5884 0.92174,0.71482 2.05756,1.54 2.52405,1.83372 0.46649,0.29372 0.91907,0.75744 1.00573,1.03049 0.0876,0.27599 0.31556,0.43583 0.51334,0.35993 0.40161,-0.15411 0.26572,-2.10837 -0.18641,-2.68074 -0.5917,-0.74908 2.03117,0.13686 3.40541,1.15026 2.05967,1.51885 2.91736,0.96433 2.02328,-1.30809 -0.80465,-2.04512 -1.57795,-4.61109 -1.92593,-6.39061 -0.17073,-0.87313 -0.47069,-2.36141 -0.66658,-3.30729 -0.19588,-0.94589 -0.48844,-2.79136 -0.65011,-4.10105 -0.2892,-2.34267 -0.92071,-4.82145 -2.42665,-9.525 -0.81525,-2.54629 -0.85183,-2.63451 -2.70173,-6.51634 -2.10514,-4.41744 -4.68373,-7.22998 -6.60514,-7.20442 -0.4595,0.006 -1.77598,0.45755 -2.9255,1.00319 -1.36995,0.65027 -2.32711,0.94833 -2.77813,0.8651 -2.90085,-0.53529 -3.94047,-0.76406 -4.45323,-0.97991 -0.37349,-0.15723 -1.12418,-0.14971 -2.04482,0.0205 -1.52959,0.28276 -2.0994,0.13706 -3.18587,-0.81461 -0.29104,-0.25493 -0.95215,-0.59872 -1.46914,-0.76397 -2.96134,-0.94659 -3.47182,-3.06727 -1.91772,-7.96681 2.29228,-7.22675 3.96938,-8.07037 13.9702,-7.02724 6.40043,0.66759 9.4615,1.58413 14.32342,4.2887 1.86224,1.03592 5.9172,5.60993 5.9172,6.67462 0,0.10697 0.47738,0.90223 1.06085,1.76723 0.58346,0.865 1.37543,2.04899 1.75992,2.63107 0.97999,1.4836 4.65213,6.23193 6.1385,7.9375 0.25363,0.29104 0.75203,0.94588 1.10755,1.45521 0.35552,0.50932 1.31903,1.66838 2.14115,2.57568 1.56578,1.72803 5.30936,7.18271 5.63172,8.20585 0.10312,0.3273 0.83434,1.38423 1.62494,2.34875 0.7906,0.96452 1.43746,1.91937 1.43746,2.1219 0,0.20253 0.35718,1.03759 0.79375,1.85569 0.43656,0.8181 0.79375,1.69424 0.79375,1.94697 0,0.25274 0.16375,0.59543 0.36389,0.76154 0.20015,0.1661 0.52062,0.86529 0.71217,1.55375 0.19154,0.68846 0.55484,1.60893 0.80732,2.04549 0.25249,0.43656 0.54182,1.27 0.64295,1.85208 0.10114,0.58209 0.39506,1.41553 0.65314,1.85209 0.25809,0.43656 0.55445,1.43352 0.65858,2.21545 0.10413,0.78194 0.40154,1.91304 0.66091,2.51355 0.25937,0.60051 0.55417,1.92527 0.65512,2.94391 0.10095,1.01865 0.41198,2.3747 0.69117,3.01345 1.30811,2.99276 0.42088,6.3128 -1.98217,7.4173 -0.59673,0.27427 -1.64382,1.01612 -2.32688,1.64855 -0.68305,0.63243 -1.86594,1.62612 -2.62864,2.2082 -0.76269,0.58209 -1.96242,1.50482 -2.66605,2.05053 -0.70363,0.5457 -1.37753,0.99218 -1.49754,0.99218 -0.12001,0 -0.42402,0.22742 -0.67556,0.50537 -0.25155,0.27796 -0.77602,0.58444 -1.16549,0.68108 -0.38947,0.0966 -0.95245,0.40361 -1.25107,0.68217 -0.29861,0.27855 -1.18461,0.62816 -1.96888,0.77689 -0.78426,0.14873 -1.72997,0.46963 -2.10156,0.71311 -0.52593,0.3446 -1.87763,0.5144 -6.10091,0.76639 -5.89894,0.35196 -6.10411,0.39027 -10.58467,1.9763 -9.53397,3.37484 -11.66809,3.47404 -19.57917,0.91012 -10.05762,-3.25961 -16.7289,-1.24975 -20.70272,6.23713 -1.74366,3.28514 -1.64934,3.09852 -2.53093,5.00769 -4.74317,10.2718 -6.82825,14.30382 -8.96199,17.33021 -0.6156,0.87313 -1.57083,2.26874 -2.12275,3.10137 -1.6816,2.53689 -2.08316,2.16749 -1.9729,-1.81491 0.10613,-3.83287 -0.0833,-4.12925 -1.56253,-2.4449 -0.55955,0.63714 -1.02244,1.27969 -1.02865,1.42789 -0.0138,0.3307 -1.45286,3.09039 -3.64477,6.98982 -0.90701,1.61358 -1.82672,3.61691 -2.04379,4.45184 -0.97674,3.75684 -1.67045,6.0904 -2.08083,6.99966 -1.35023,2.99163 0.80836,2.39658 4.30354,-1.18635 1.50718,-1.545 1.62182,-1.61119 2.0496,-1.18341 0.65345,0.65345 0.14084,7.56722 -0.72097,9.72408 -1.0218,2.55727 -1.01055,12.65818 0.0155,13.89446 0.30207,0.36397 1.50459,4.37022 2.01437,6.71095 0.20259,0.93023 0.5969,2.47804 0.87624,3.43958 0.27933,0.96154 0.64692,3.51876 0.81685,5.68272 0.37277,4.74717 0.40382,4.68939 -2.77149,5.15726 -1.15529,0.17022 -2.29125,0.48209 -2.52434,0.69304 -0.2331,0.21095 -1.07379,0.51231 -1.86821,0.66969 -0.79442,0.15738 -1.75579,0.45638 -2.13637,0.66444 -0.43879,0.23988 -1.93924,0.44013 -4.10104,0.54732 -2.73988,0.13586 -3.59086,0.27476 -4.33512,0.70759 -0.71205,0.4141 -1.60727,0.57748 -3.87404,0.707 -1.86557,0.1066 -3.10655,0.30003 -3.37979,0.5268 -0.31025,0.25749 -0.89546,0.31566 -2.07908,0.20669 -2.18734,-0.20137 -9.06388,0.45313 -10.30391,0.98072 -1.24713,0.53061 -4.2136,0.51841 -5.63089,-0.0232 z M 56.070834,168.55356 c 0,-0.27926 -0.507766,-0.39659 -0.658791,-0.15222 -0.0914,0.14789 0.01943,0.2689 0.246301,0.2689 0.226869,0 0.41249,-0.0525 0.41249,-0.11668 z"
         id="path3"
         sodipodi:nodetypes="csssssssssssssssssssssssssssssssssssssssssssssssssssscsssssssssssssssssssssssscsssssssssssssssssscssssssssssssssssssssssscsssssssssssssscsssssssssssssssssssssssssssssssssssssssssssssssscssssssssssssssssssssccssss" /></g></g></svg>
